<svg width="115" height="32" viewBox="0 0 115 32" fill="none" xmlns="http://www.w3.org/2000/svg">
<g id="Logo">
<rect id="Rectangle 1" y="18.6667" width="32" height="13.3333" fill="white"/>
<path id="Vector" fill-rule="evenodd" clip-rule="evenodd" d="M57.4184 32H51.3286V12.974H48V8.58629H51.3286V6.69504C51.3286 4.23641 51.9338 2.53428 53.1442 1.513C54.3546 0.491726 55.9811 0 58.0993 0C59.0071 0 59.6879 -5.77728e-07 60.1418 0.0378245C60.5957 0.0756495 60.974 0.0756498 61.2009 0.113475V5.10638H59.4988C59.0827 5.10638 58.6667 5.14421 58.2884 5.25768C58.0236 5.33333 57.7967 5.48463 57.6454 5.71158C57.4941 5.97636 57.4184 6.24113 57.4184 6.54373C57.3806 6.88416 57.3806 7.26241 57.3806 7.75414V8.69976H61.3522V13.0875H57.3806V32H57.4184ZM63.4326 32V0H69.5603V32H63.4326ZM86.7707 17.9669C86.695 17.1726 86.5059 16.4161 86.2033 15.7352C85.9385 15.1678 85.5603 14.6761 85.1064 14.2979C84.6903 13.9196 84.2364 13.6548 83.7068 13.5035C83.2151 13.3522 82.7234 13.2766 82.2317 13.2766C80.8321 13.2766 79.773 13.6927 79.0165 14.5248C78.26 15.357 77.8061 16.4917 77.6548 18.0047L86.7707 17.9669ZM92.5579 24.8511C92.2175 26.0615 91.6501 27.1962 90.8936 28.2175C90.2128 29.0875 89.4184 29.844 88.4728 30.4113C87.6028 30.9787 86.6194 31.357 85.6359 31.6217C84.6903 31.8487 83.7068 31.9622 82.7234 31.9622C81.2482 31.9622 79.773 31.773 78.3357 31.357C77.0118 30.9787 75.8014 30.26 74.818 29.3144C73.7589 28.2553 72.9645 26.9693 72.4728 25.5319C71.9054 23.9433 71.6028 22.0142 71.6028 19.7069C71.6028 19.1017 71.6407 18.5343 71.7163 17.9291C71.792 17.1348 71.9433 16.3404 72.208 15.5839C72.4728 14.6761 72.8511 13.844 73.305 13.0118C73.7967 12.1418 74.4397 11.3475 75.234 10.6667C76.104 9.91016 77.0875 9.34279 78.1844 8.96454C79.5461 8.51064 80.9456 8.28369 82.383 8.32151C83.5555 8.32151 84.7281 8.51064 85.8629 8.81324C87.1489 9.15366 88.2837 9.79669 89.2671 10.6667C90.3262 11.5745 91.1584 12.8227 91.8392 14.4113C92.5201 16 92.8605 18.0804 92.8605 20.6525V21.7494H77.5035C77.5414 22.279 77.617 22.8085 77.6927 23.3381C77.8061 23.9811 78.0709 24.5863 78.3735 25.1537C78.7518 25.7589 79.2813 26.2884 79.9243 26.6288C80.6052 27.0449 81.5508 27.234 82.7234 27.234C83.5555 27.234 84.3499 27.0071 85.0686 26.6288C85.7872 26.2506 86.3168 25.5697 86.5059 24.8132L92.5579 24.8511ZM113.475 32H105.986L102.014 25.0024L98.0425 32H90.7423L98.5343 20.1229L91.0449 8.69976H98.383L102.241 15.4704L106.024 8.69976H113.135L105.57 20.1229L113.475 32ZM0 32H32V0H0V32ZM12.5579 28.8983C12.104 29.2009 11.6123 29.3522 11.0827 29.3522C10.4019 29.3901 9.79669 28.8983 9.75886 28.2175C9.75886 28.1797 9.75886 28.104 9.75886 28.0662C9.75886 27.0827 10.6667 26.5532 12.5579 26.3262V26.0615C12.5579 25.721 12.2931 25.5319 11.8771 25.5319C11.461 25.5319 11.0449 25.721 10.7801 26.0615L9.98582 25.6076C10.4397 25.0024 11.1584 24.6998 11.8771 24.7376C13.0496 24.7376 13.6927 25.2293 13.6927 26.0615V29.2766H12.6714L12.5579 28.8983ZM10.8936 27.9527C10.8558 28.2553 11.0827 28.5201 11.3853 28.5201H11.4232C11.8392 28.5201 12.2175 28.331 12.5201 28.0662V27.0071C11.4232 27.1584 10.8936 27.4232 10.8936 27.9527ZM14.6383 29.2766H15.8109V26.0615C16.1135 25.7589 16.4917 25.6076 16.9078 25.5697C17.3239 25.5697 17.4752 25.8345 17.4752 26.3641V29.2766H18.6478V26.1371C18.6478 25.1915 18.156 24.6998 17.2482 24.6998C16.7187 24.6998 16.2648 24.9267 15.7352 25.305L15.6217 24.7754L14.6383 24.9267V29.2766ZM26.3641 29.3901C25.0402 29.3901 24.2837 28.5579 24.2837 27.0827C24.2837 25.6076 25.078 24.7376 26.3641 24.7376C27.6501 24.7376 28.4066 25.5697 28.4066 27.0071C28.4066 27.0827 28.4066 27.1584 28.4066 27.234H25.4563C25.4563 28.0662 25.7967 28.5201 26.5154 28.5201C26.9314 28.5201 27.3097 28.2931 27.5366 27.9527L28.4066 28.4444C27.9905 29.0496 27.3097 29.3901 26.3641 29.3901ZM27.2719 26.4775C27.3097 26.0236 27.0071 25.6076 26.5154 25.5319C26.4775 25.5319 26.4019 25.5319 26.3641 25.5319C25.8345 25.5319 25.4941 25.8723 25.4563 26.4775H27.2719ZM3.93381 29.4279C2.76123 29.4279 1.73995 28.6714 1.73995 27.0827C1.73995 25.4563 2.79905 24.7376 3.93381 24.7376C5.06856 24.7376 6.12766 25.4941 6.12766 27.0827C6.12766 28.6714 5.10638 29.4279 3.93381 29.4279ZM3.93381 25.721C3.06383 25.721 2.91253 26.5154 2.91253 27.0827C2.91253 27.6501 3.06383 28.4444 3.93381 28.4444C4.80378 28.4444 4.95508 27.6501 4.95508 27.0827C4.99291 26.4775 4.80378 25.721 3.93381 25.721ZM6.95981 29.2766H8.17021V26.3262C8.35934 25.9102 8.88889 25.8345 9.41844 25.8345H9.49409V24.7376C9.45626 24.7376 9.38061 24.7376 9.34279 24.7376C8.85106 24.7754 8.43499 25.0024 8.13239 25.3428V24.8132H6.99764V29.2766H6.95981ZM21.4846 28.331C22.3924 28.331 22.4681 27.4232 22.4681 26.818C22.4681 26.1371 22.1277 25.5697 21.4846 25.5697C21.0686 25.5697 20.5768 25.8723 20.5768 26.8936C20.5768 27.4232 20.6147 28.331 21.4846 28.331ZM23.565 24.8132V29.0118C23.565 29.7683 23.4894 30.9787 21.3712 30.9787C20.5012 30.9787 19.669 30.6383 19.5177 29.8818L20.6903 29.6927C20.7281 29.9196 20.8794 30.1466 21.5225 30.1466C22.1277 30.1466 22.4303 29.844 22.4303 29.1631V28.6336C22.2033 29.0496 21.7494 29.3144 21.2955 29.2766C20.2742 29.2766 19.4421 28.5579 19.4421 27.0449C19.4421 25.5319 20.2742 24.6998 21.2199 24.6998C22.0898 24.6998 22.4303 25.1158 22.5059 25.305L22.6194 24.7754L23.565 24.8132ZM28.8605 23.3381H28.4066V24.6241H28.1797V23.3381H27.7258V23.1489H28.8983V23.3381H28.8605ZM30.7896 24.6241H30.5248V23.4137L30.0331 24.6241H29.8818L29.3901 23.4137V24.6241H29.1631V23.1489H29.5414L29.9953 24.2837L30.4113 23.1489H30.7896V24.6241Z" fill="#FF6600"/>
</g>
</svg>
